<svg width="36" height="36" viewBox="0 0 36 36" fill="none" xmlns="http://www.w3.org/2000/svg">
<path d="M21.046 19.4541C20.9415 19.3495 20.8174 19.2665 20.6808 19.2099C20.5443 19.1533 20.3979 19.1241 20.25 19.1241C20.1022 19.1241 19.9558 19.1533 19.8192 19.2099C19.6826 19.2665 19.5586 19.3495 19.4541 19.4541L16.875 22.0346L13.9655 19.125L16.546 16.546C16.757 16.3349 16.8756 16.0486 16.8756 15.75C16.8756 15.4515 16.757 15.1652 16.546 14.9541C16.3349 14.743 16.0485 14.6244 15.75 14.6244C15.4515 14.6244 15.1652 14.743 14.9541 14.9541L12.375 17.5346L9.79595 14.9541C9.58486 14.743 9.29855 14.6244 9.00002 14.6244C8.70148 14.6244 8.41517 14.743 8.20408 14.9541C7.99298 15.1652 7.87439 15.4515 7.87439 15.75C7.87439 16.0486 7.99298 16.3349 8.20408 16.546L9.09705 17.4375L5.81767 20.7155C5.3997 21.1334 5.06814 21.6295 4.84193 22.1755C4.61572 22.7216 4.49929 23.3068 4.49929 23.8978C4.49929 24.4889 4.61572 25.0741 4.84193 25.6202C5.06814 26.1662 5.3997 26.6623 5.81767 27.0802L6.57423 27.8353L2.57908 31.8291C2.47455 31.9336 2.39164 32.0577 2.33507 32.1943C2.2785 32.3308 2.24939 32.4772 2.24939 32.625C2.24939 32.7728 2.2785 32.9192 2.33507 33.0558C2.39164 33.1924 2.47455 33.3164 2.57908 33.421C2.79017 33.6321 3.07648 33.7507 3.37502 33.7507C3.52283 33.7507 3.66921 33.7215 3.80577 33.665C3.94234 33.6084 4.06643 33.5255 4.17095 33.421L8.1647 29.4258L8.91986 30.1824C9.33774 30.6003 9.83386 30.9319 10.3799 31.1581C10.9259 31.3843 11.5112 31.5008 12.1022 31.5008C12.6932 31.5008 13.2785 31.3843 13.8245 31.1581C14.3705 30.9319 14.8667 30.6003 15.2845 30.1824L18.5625 26.903L19.4541 27.796C19.5586 27.9005 19.6827 27.9834 19.8193 28.04C19.9558 28.0965 20.1022 28.1257 20.25 28.1257C20.3978 28.1257 20.5442 28.0965 20.6808 28.04C20.8173 27.9834 20.9414 27.9005 21.046 27.796C21.1505 27.6914 21.2334 27.5674 21.29 27.4308C21.3465 27.2942 21.3756 27.1478 21.3756 27C21.3756 26.8522 21.3465 26.7058 21.29 26.5693C21.2334 26.4327 21.1505 26.3086 21.046 26.2041L18.4655 23.625L21.046 21.046C21.1506 20.9415 21.2335 20.8174 21.2901 20.6808C21.3468 20.5443 21.3759 20.3979 21.3759 20.25C21.3759 20.1022 21.3468 19.9558 21.2901 19.8192C21.2335 19.6826 21.1506 19.5586 21.046 19.4541ZM13.6927 28.5947C13.2708 29.0164 12.6987 29.2532 12.1022 29.2532C11.5057 29.2532 10.9336 29.0164 10.5117 28.5947L7.40955 25.4883C6.98791 25.0664 6.75106 24.4943 6.75106 23.8978C6.75106 23.3014 6.98791 22.7293 7.40955 22.3074L10.6875 19.028L16.972 25.3125L13.6927 28.5947ZM33.421 2.57909C33.3165 2.47449 33.1924 2.39152 33.0558 2.3349C32.9193 2.27829 32.7729 2.24915 32.625 2.24915C32.4772 2.24915 32.3308 2.27829 32.1942 2.3349C32.0576 2.39152 31.9336 2.47449 31.8291 2.57909L27.8353 6.57425L27.0802 5.81769C26.2353 4.97527 25.0909 4.50221 23.8978 4.50221C22.7047 4.50221 21.5603 4.97527 20.7155 5.81769L17.4375 9.09706L16.546 8.20409C16.3349 7.993 16.0485 7.8744 15.75 7.8744C15.4515 7.87441 15.1652 7.993 14.9541 8.20409C14.743 8.41519 14.6244 8.7015 14.6244 9.00003C14.6244 9.29856 14.743 9.58487 14.9541 9.79597L26.2041 21.046C26.3086 21.1505 26.4327 21.2334 26.5693 21.29C26.7058 21.3465 26.8522 21.3757 27 21.3757C27.1478 21.3757 27.2942 21.3465 27.4308 21.29C27.5673 21.2334 27.6914 21.1505 27.796 21.046C27.9005 20.9414 27.9834 20.8174 28.04 20.6808C28.0965 20.5442 28.1256 20.3978 28.1256 20.25C28.1256 20.1022 28.0965 19.9558 28.04 19.8193C27.9834 19.6827 27.9005 19.5586 27.796 19.4541L26.903 18.5625L30.1824 15.2846C30.6003 14.8667 30.9319 14.3706 31.1581 13.8245C31.3843 13.2785 31.5007 12.6933 31.5007 12.1022C31.5007 11.5112 31.3843 10.9259 31.1581 10.3799C30.9319 9.83387 30.6003 9.33775 30.1824 8.91987L29.4258 8.16472L33.421 4.17097C33.5256 4.06649 33.6085 3.94241 33.6651 3.80584C33.7218 3.66927 33.7509 3.52287 33.7509 3.37503C33.7509 3.22719 33.7218 3.0808 33.6651 2.94422C33.6085 2.80765 33.5256 2.68358 33.421 2.57909ZM28.5905 13.6885L25.3125 16.9721L19.028 10.6875L22.3074 7.40956C22.7293 6.98792 23.3013 6.75107 23.8978 6.75107C24.4943 6.75107 25.0664 6.98792 25.4883 7.40956L28.5905 10.5033C28.8005 10.7124 28.9672 10.9609 29.0809 11.2345C29.1947 11.5082 29.2532 11.8016 29.2532 12.098C29.2532 12.3944 29.1947 12.6878 29.0809 12.9615C28.9672 13.2351 28.8005 13.4836 28.5905 13.6927V13.6885Z" fill="white"/>
</svg>
