<svg width="32" height="32" viewBox="0 0 32 32" fill="none" xmlns="http://www.w3.org/2000/svg">
<path d="M12.0324 4.625C11.9674 4.36894 12.0064 4.09757 12.1409 3.87016C12.2753 3.64275 12.4942 3.47777 12.7499 3.41126C14.8817 2.86145 17.1181 2.86145 19.2499 3.41126C19.486 3.47171 19.6919 3.61632 19.8289 3.81791C19.966 4.0195 20.0246 4.26418 19.9939 4.50598C19.9632 4.74778 19.8453 4.97003 19.6622 5.13098C19.4792 5.29193 19.2436 5.38048 18.9999 5.38C18.9156 5.37956 18.8316 5.36865 18.7499 5.3475C16.9462 4.88178 15.0537 4.88178 13.2499 5.3475C13.1225 5.38015 12.99 5.38736 12.8598 5.3687C12.7296 5.35005 12.6044 5.3059 12.4913 5.23879C12.3782 5.17168 12.2795 5.08292 12.2007 4.9776C12.122 4.87228 12.0648 4.75246 12.0324 4.625ZM4.16866 13.75C4.29522 13.7852 4.42747 13.795 4.55785 13.7791C4.68823 13.7631 4.81418 13.7216 4.92852 13.6569C5.04286 13.5923 5.14334 13.5057 5.22422 13.4022C5.3051 13.2987 5.3648 13.1803 5.39991 13.0538C5.89814 11.2592 6.84445 9.62081 8.14991 8.2925C8.32083 8.10079 8.41143 7.85068 8.40294 7.59398C8.39445 7.33729 8.28751 7.0937 8.1043 6.9137C7.92109 6.73371 7.67565 6.6311 7.41885 6.62716C7.16204 6.62321 6.91357 6.71822 6.72491 6.8925C5.18265 8.46198 4.06434 10.3975 3.47491 12.5175C3.43952 12.644 3.4294 12.7762 3.44511 12.9066C3.46083 13.037 3.50207 13.163 3.5665 13.2775C3.63092 13.3919 3.71725 13.4925 3.82058 13.5736C3.9239 13.6547 4.04218 13.7146 4.16866 13.75ZM18.7499 26.6525C16.9462 27.1182 15.0537 27.1182 13.2499 26.6525C12.9947 26.5908 12.7255 26.6318 12.5003 26.7669C12.2751 26.902 12.1121 27.1202 12.0465 27.3744C11.9808 27.6287 12.0178 27.8985 12.1494 28.1257C12.281 28.3529 12.4967 28.5192 12.7499 28.5888C14.8817 29.1386 17.1181 29.1386 19.2499 28.5888C19.5031 28.5192 19.7188 28.3529 19.8504 28.1257C19.982 27.8985 20.019 27.6287 19.9533 27.3744C19.8877 27.1202 19.7247 26.902 19.4995 26.7669C19.2744 26.6318 19.0051 26.5908 18.7499 26.6525ZM26.5999 13.0563C26.6709 13.3119 26.8404 13.5288 27.0713 13.6594C27.3022 13.79 27.5756 13.8234 27.8312 13.7525C28.0868 13.6816 28.3037 13.512 28.4343 13.2811C28.5649 13.0502 28.5984 12.7769 28.5274 12.5213C27.9376 10.4014 26.8193 8.46599 25.2774 6.89625C25.1863 6.79892 25.0766 6.72079 24.9548 6.66647C24.833 6.61215 24.7016 6.58274 24.5683 6.57996C24.435 6.57718 24.3025 6.60109 24.1785 6.65028C24.0546 6.69947 23.9417 6.77296 23.8466 6.86641C23.7515 6.95986 23.676 7.07139 23.6247 7.19444C23.5733 7.31749 23.547 7.44957 23.5475 7.58291C23.5479 7.71626 23.575 7.84817 23.6271 7.97089C23.6793 8.09361 23.7555 8.20466 23.8512 8.2975C25.1542 9.62624 26.0994 11.2634 26.5987 13.0563H26.5999ZM28.5299 19.48C27.8683 21.8652 26.5375 24.011 24.6949 25.6638C24.5809 25.7666 24.4448 25.8419 24.2971 25.8837C24.1494 25.9255 23.994 25.9327 23.843 25.9047C23.692 25.8768 23.5495 25.8145 23.4265 25.7227C23.3035 25.6308 23.2033 25.5118 23.1337 25.375C22.465 24.0575 21.4444 22.9509 20.1853 22.1779C18.9261 21.4049 17.4774 20.9957 15.9999 20.9957C14.5224 20.9957 13.0737 21.4049 11.8146 22.1779C10.5554 22.9509 9.53487 24.0575 8.86616 25.375C8.7966 25.5117 8.69652 25.6306 8.57367 25.7224C8.45081 25.8143 8.30848 25.8766 8.15767 25.9047C8.00686 25.9327 7.85163 25.9257 7.70397 25.8841C7.55632 25.8426 7.42021 25.7676 7.30616 25.665C5.46346 24.0113 4.1327 21.8647 3.47116 19.4788C3.40038 19.2232 3.43404 18.9499 3.56473 18.7191C3.69542 18.4883 3.91243 18.3189 4.16804 18.2481C4.42364 18.1773 4.69689 18.211 4.92768 18.3417C5.15846 18.4724 5.32788 18.6894 5.39866 18.945C5.84597 20.561 6.65854 22.0527 7.77366 23.305C8.88942 21.6867 10.4597 20.4353 12.2862 19.7088C11.3061 18.9372 10.5908 17.8795 10.2398 16.6825C9.88886 15.4856 9.91964 14.2091 10.3279 13.0305C10.7361 11.8518 11.5015 10.8298 12.5177 10.1064C13.5338 9.38297 14.7501 8.99424 15.9974 8.99424C17.2447 8.99424 18.461 9.38297 19.4772 10.1064C20.4933 10.8298 21.2587 11.8518 21.6669 13.0305C22.0752 14.2091 22.106 15.4856 21.755 16.6825C21.404 17.8795 20.6887 18.9372 19.7087 19.7088C21.5351 20.4353 23.1054 21.6867 24.2212 23.305C25.3363 22.0527 26.1488 20.561 26.5962 18.945C26.6313 18.8184 26.691 18.7 26.7719 18.5966C26.8528 18.4931 26.9533 18.4065 27.0676 18.3419C27.1819 18.2772 27.3079 18.2357 27.4382 18.2197C27.5686 18.2038 27.7008 18.2136 27.8274 18.2488C27.954 18.2839 28.0724 18.3436 28.1759 18.4245C28.2793 18.5054 28.3659 18.6058 28.4305 18.7202C28.4952 18.8345 28.5367 18.9605 28.5527 19.0908C28.5686 19.2212 28.5588 19.3534 28.5237 19.48H28.5299ZM15.9999 19C16.791 19 17.5644 18.7654 18.2222 18.3259C18.88 17.8864 19.3927 17.2616 19.6954 16.5307C19.9982 15.7998 20.0774 14.9956 19.9231 14.2196C19.7687 13.4437 19.3877 12.731 18.8283 12.1716C18.2689 11.6122 17.5562 11.2312 16.7803 11.0769C16.0043 10.9225 15.2001 11.0017 14.4692 11.3045C13.7383 11.6072 13.1136 12.1199 12.674 12.7777C12.2345 13.4355 11.9999 14.2089 11.9999 15C11.9999 16.0609 12.4213 17.0783 13.1715 17.8284C13.9216 18.5786 14.939 19 15.9999 19Z" fill="white"/>
</svg>
